<?xml version="1.0" encoding="utf-8"?>
<!-- Generator: Adobe Illustrator 23.0.5, SVG Export Plug-In . SVG Version: 6.00 Build 0)  -->
<svg version="1.1" id="Layer_1" xmlns="http://www.w3.org/2000/svg" xmlns:xlink="http://www.w3.org/1999/xlink" x="0px" y="0px"
	 viewBox="0 0 122 32" style="enable-background:new 0 0 122 32;" xml:space="preserve">
<style type="text/css">
	.st0{display:none;}
	.st1{font-family:'AgencyFB-Bold';}
	.st2{font-size:21.2224px;}
</style>
<g>
	<path d="M11.06,20.06c0.37,0.81,0.88,1.46,1.54,2.09c-1.13-2.37-0.86-4.51,0.75-6.54c0.43,0.63,1,1.03,1.65,1.37
		c-0.38,0.57-0.61,1.19-0.69,1.85c-0.08,0.67-0.02,1.32,0.25,1.95c0.12-2,1.12-3.49,2.69-4.64c2.24,1.87,4.2,1.5,5.98,0
		c0.78,0.53,1.41,1.2,1.9,2.01c0.49,0.81,0.74,1.69,0.77,2.66c0.41-0.66,0.55-2.39-0.4-3.83c0.63-0.33,1.21-0.72,1.63-1.35
		c0.82,0.91,1.29,1.95,1.43,3.13c0.14,1.17-0.07,2.29-0.63,3.34c0.64-0.57,1.14-1.23,1.53-1.99c0.14,0.77,0.1,1.54-0.04,2.29
		c-0.38,2-1.48,3.58-2.97,4.92c-0.67,0.6-1.4,1.12-2.28,1.52c0.32-0.88,0.58-1.74,0.6-2.66c-0.57,1.14-1.4,2.05-2.48,2.76
		c0.66-1.85,0.74-3.73,0.31-5.63c0.01,1.2-0.24,2.35-0.61,3.47c-0.38,1.13-0.99,2.13-1.75,3.11c-0.75-0.96-1.36-1.96-1.74-3.1
		c-0.38-1.13-0.63-2.29-0.62-3.49c-0.42,1.9-0.35,3.78,0.31,5.64c-1.07-0.7-1.89-1.6-2.47-2.73c0.01,0.9,0.27,1.75,0.58,2.59
		c-1.22-0.41-3.24-2.12-4.25-3.84C11.18,23.43,10.73,21.37,11.06,20.06z M23.41,19.53c-0.05-0.01-0.1-0.02-0.16-0.02
		c-0.78-0.04-1.54-0.17-2.24-0.51c-0.53-0.26-0.97-0.26-1.5,0c-0.75,0.36-1.57,0.48-2.4,0.52c0.16,0.94,1.08,1.91,1.81,1.54
		c-0.01-0.02-0.01-0.06-0.02-0.07c-0.38-0.43-0.25-0.76,0.35-0.89c0.7-0.15,1.41-0.15,2.1,0.02c0.52,0.13,0.61,0.38,0.31,0.82
		c-0.02,0.04-0.05,0.07-0.07,0.11C22.29,21.44,23.24,20.52,23.41,19.53z"/>
	<path d="M12.18,10.49c-0.03-2.16-0.36-4.17-1.75-5.87c0.02-0.02,0.04-0.03,0.05-0.05c1.52,0.59,3.05,1.18,4.62,1.78
		c-0.6,0.24-1.15,0.45-1.73,0.68c0.08,0.07,0.13,0.13,0.19,0.17c0.97,0.67,2.04,0.87,3.19,0.62c0.41-0.09,0.76-0.3,1.04-0.61
		c0.6-0.66,0.81-1.46,0.9-2.38c-0.71,0.36-1.37,0.69-2.04,1.02c-0.01-0.01-0.02-0.03-0.04-0.04c1.21-1.66,2.41-3.31,3.64-5
		c1.23,1.68,2.44,3.34,3.64,5c-0.01,0.01-0.02,0.03-0.03,0.04c-0.67-0.33-1.33-0.67-2.01-1c0.01,1.26,0.67,2.74,1.97,2.99
		c1.11,0.22,2.15,0.02,3.09-0.61c0.07-0.05,0.14-0.11,0.24-0.19c-0.59-0.23-1.13-0.45-1.74-0.68c1.59-0.61,3.12-1.21,4.66-1.8
		c-1.36,1.74-1.7,3.77-1.73,5.9c-0.04,0.01-0.08,0.02-0.12,0.02c-2.61-0.15-5.08,0.46-7.47,1.43c-0.49,0.2-0.49,0.2-0.49,0.72
		c0,1,0.01,2-0.01,2.99c0,0.27,0.1,0.34,0.34,0.35c0.45,0.03,0.84-0.12,1.19-0.37c0.06-0.05,0.13-0.09,0.22-0.15
		c0.06,0.27,0.12,0.51,0.19,0.77c-0.06,0.01-0.11,0.02-0.15,0.01c-0.41-0.08-0.75,0.07-1.03,0.36c-0.2,0.21-0.44,0.38-0.74,0.32
		c-0.22-0.04-0.48-0.1-0.64-0.24c-0.37-0.32-0.73-0.57-1.31-0.4c0.39-1.52,0.76-2.99,1.14-4.49C17.13,10.85,14.72,10.32,12.18,10.49
		z M20.25,2.39c-0.14,0.19-0.23,0.33-0.34,0.46c-0.2,0.23-0.28,0.48-0.27,0.79c0.02,0.41-0.01,0.82-0.02,1.22
		c-0.02,0.72-0.19,1.4-0.51,2.04c-0.46,0.94-1.18,1.58-2.22,1.8c-0.71,0.15-1.42,0.14-2.13-0.02c-0.67-0.15-1.28-0.44-1.87-0.85
		c0.08,0.59,0.15,1.15,0.23,1.72c2.49-0.02,4.84,0.64,7.13,1.56C20.25,8.2,20.25,5.33,20.25,2.39z"/>
	<path d="M26.59,10.96c0.41,0,0.74-0.01,1.08,0c0.08,0,0.18,0.04,0.25,0.09c1.57,1.13,2.52,3.58,2.1,5.43
		c-0.02,0.09-0.05,0.17-0.07,0.26c-0.12-0.37-0.23-0.73-0.34-1.09c-0.02,0-0.04,0.01-0.06,0.01c0,0.43,0.04,0.87-0.01,1.29
		c-0.05,0.43-0.2,0.85-0.31,1.28c-0.03,0-0.06-0.01-0.09-0.01c-0.05-0.21-0.09-0.41-0.14-0.61c-0.24-0.94-0.67-1.78-1.39-2.45
		c-0.11-0.1-0.11-0.18-0.06-0.3c0.22-0.55,0.27-1.23,0.11-1.69c-0.1,0.62-0.29,1.14-0.9,1.49C27.1,13.4,27.08,12.2,26.59,10.96z"/>
	<path d="M13.78,14.67c-0.6-0.35-0.81-0.86-0.92-1.45c-0.14,0.62-0.08,1.22,0.2,1.81c-0.95,0.85-1.45,1.94-1.66,3.26
		c-0.24-0.45-0.37-0.87-0.4-1.31c-0.03-0.44-0.01-0.88-0.07-1.33c-0.12,0.35-0.23,0.71-0.37,1.14c-0.06-0.38-0.14-0.69-0.14-1.01
		c-0.03-1.84,0.66-3.37,2.02-4.6c0.18-0.16,0.37-0.24,0.61-0.23c0.27,0.02,0.54,0,0.88,0C13.45,12.19,13.41,13.4,13.78,14.67z"/>
	<path d="M14.33,12.39c0.98-0.47,1.86-0.54,2.78-0.02c0.52,0.3,1.09,0.5,1.67,0.75c-0.1,0.1-0.21,0.25-0.37,0.35
		c-0.51,0.34-1.08,0.5-1.7,0.49c-0.33-0.01-0.62-0.14-0.85-0.37c-0.15-0.15-0.28-0.31-0.41-0.47
		C15.19,12.76,14.89,12.44,14.33,12.39z"/>
	<path d="M21.65,13.02c0.84-0.07,1.44-0.49,2.09-0.81c0.82-0.4,1.6-0.22,2.39,0.16c-0.59,0.06-0.89,0.5-1.2,0.91
		c-0.43,0.58-1,0.81-1.69,0.62c-0.39-0.1-0.77-0.27-1.13-0.44C21.95,13.39,21.84,13.21,21.65,13.02z"/>
</g>
<text transform="matrix(1.1116 0 0 1 43.9429 25.5811)" class="st0 st1 st2">KINGDOM</text>
</svg>
